<?xml version="1.0" standalone="no"?>
<!DOCTYPE svg PUBLIC "-//W3C//DTD SVG 20010904//EN"
 "http://www.w3.org/TR/2001/REC-SVG-20010904/DTD/svg10.dtd">
<svg version="1.0" xmlns="http://www.w3.org/2000/svg"
 width="500.000000pt" height="500.000000pt" viewBox="0 0 500.000000 500.000000"
 preserveAspectRatio="xMidYMid meet">
<metadata>
Created by potrace 1.16, written by Peter Selinger 2001-2019
</metadata>
<g transform="translate(0.000000,500.000000) scale(0.100000,-0.100000)"
fill="#000000" stroke="none">
<path d="M2362 2921 c2 -5 34 -34 71 -65 l69 -56 255 0 c141 0 254 2 251 5
-18 19 -279 105 -343 114 -94 13 -308 15 -303 2z"/>
<path d="M2105 2892 c-33 -9 -60 -22 -60 -27 0 -6 14 -32 30 -58 l30 -48 160
7 c88 3 162 8 164 10 8 8 -53 76 -91 102 -52 34 -145 40 -233 14z"/>
<path d="M2755 2780 l-70 -6 69 -2 c115 -3 357 -42 406 -65 25 -11 69 -45 98
-73 l52 -53 -32 59 c-18 32 -31 61 -28 63 3 3 43 7 90 10 l85 5 -77 -10 c-43
-6 -78 -15 -78 -20 0 -17 52 -98 69 -107 9 -5 63 -10 121 -12 l105 -4 -2 30
c-2 29 -2 29 9 8 11 -24 28 -31 28 -13 0 23 -32 71 -44 67 -7 -3 -18 4 -24 14
-7 10 -22 19 -35 19 -15 0 -18 3 -9 8 8 5 -6 14 -40 24 -161 50 -491 78 -693
58z"/>
<path d="M2701 2615 c42 -23 62 -81 57 -172 -4 -89 -28 -149 -66 -166 l-25
-12 24 -6 c13 -4 47 -7 74 -8 39 0 56 5 78 24 33 30 34 35 2 35 -23 0 -25 4
-26 48 l0 47 -20 -52 c-11 -29 -32 -62 -46 -73 -40 -31 -45 -24 -8 13 74 74
74 230 0 304 -18 18 -41 33 -51 33 -15 -1 -14 -4 7 -15z"/>
<path d="M2852 2383 l3 -48 75 -6 c41 -4 176 -7 300 -7 302 -2 420 15 420 58
0 25 -9 30 -38 19 -49 -19 -236 -28 -394 -21 -143 7 -159 10 -181 30 -20 19
-34 22 -106 22 l-82 0 3 -47z"/>
<path d="M1240 1925 c0 -41 2 -45 25 -45 18 0 25 5 25 20 0 13 7 20 20 20 19
0 20 -7 20 -115 0 -108 -1 -115 -20 -115 -13 0 -20 -7 -20 -20 0 -18 7 -20 70
-20 63 0 70 2 70 20 0 13 -7 20 -20 20 -19 0 -20 7 -20 115 0 110 1 115 21
115 13 0 23 -8 26 -21 4 -14 12 -19 27 -17 17 2 21 10 21 43 l0 40 -122 3
-123 3 0 -46z"/>
<path d="M1583 1954 c-4 -10 1 -22 10 -29 24 -17 25 -235 2 -235 -8 0 -15 -9
-15 -20 0 -18 7 -20 60 -20 53 0 60 2 60 20 0 11 -7 20 -15 20 -11 0 -15 11
-15 40 0 38 2 40 30 40 25 0 33 -6 48 -37 13 -27 14 -37 5 -40 -7 -3 -13 -13
-13 -24 0 -17 8 -19 60 -19 53 0 60 2 60 20 0 11 -6 20 -13 20 -7 0 -25 24
-39 54 -26 53 -26 54 -8 71 26 24 34 69 18 102 -17 36 -63 52 -156 52 -59 1
-74 -2 -79 -15z"/>
<path d="M2010 1950 c0 -11 7 -20 15 -20 8 0 15 -1 15 -3 0 -4 -66 -198 -75
-219 -4 -10 -13 -18 -21 -18 -8 0 -14 -9 -14 -20 0 -18 7 -20 60 -20 53 0 60
2 60 20 0 12 -7 20 -16 20 -9 0 -14 7 -12 18 3 14 14 17 63 17 49 0 60 -3 63
-17 2 -11 -3 -18 -12 -18 -9 0 -16 -8 -16 -20 0 -18 7 -20 65 -20 57 0 65 2
65 19 0 10 -8 21 -17 23 -12 4 -28 34 -47 89 -16 46 -37 108 -48 137 l-19 52
-55 0 c-47 0 -54 -2 -54 -20z"/>
<path d="M2333 1954 c-4 -10 1 -22 10 -29 24 -17 25 -235 2 -235 -8 0 -15 -9
-15 -20 0 -18 7 -20 60 -20 53 0 60 2 60 20 0 11 -7 20 -15 20 -12 0 -15 16
-15 85 0 47 2 85 4 85 2 0 32 -47 67 -105 56 -92 67 -105 92 -105 l27 0 0 134
c0 110 3 135 15 140 8 3 15 15 15 26 0 19 -5 21 -57 18 -47 -2 -58 -7 -61 -21
-3 -12 4 -20 18 -24 19 -5 21 -12 19 -84 -1 -43 -5 -76 -9 -74 -5 3 -36 50
-70 105 -61 100 -61 100 -101 100 -28 0 -42 -5 -46 -16z"/>
<path d="M2789 1955 c-43 -23 -57 -93 -27 -132 5 -7 31 -20 56 -29 59 -21 86
-49 72 -74 -20 -38 -90 -37 -90 1 0 14 -7 19 -25 19 -22 0 -25 -4 -25 -40 0
-38 2 -40 42 -50 55 -15 105 -5 140 30 55 56 27 123 -67 158 -45 16 -50 21
-50 47 0 28 3 30 38 33 32 3 39 0 44 -17 3 -14 13 -21 29 -21 21 0 24 5 24 35
0 29 -5 37 -26 45 -37 14 -105 12 -135 -5z"/>
<path d="M3135 1951 c-53 -32 -70 -67 -70 -146 0 -77 15 -111 61 -142 32 -20
108 -23 152 -4 30 12 32 17 32 62 0 34 5 51 17 57 10 6 14 16 10 26 -5 12 -20
16 -62 16 -52 0 -55 -1 -55 -25 0 -16 6 -25 15 -25 10 0 15 -11 15 -35 0 -29
-4 -36 -26 -41 -77 -19 -129 86 -90 181 16 37 42 49 92 43 21 -2 30 -9 32 -25
3 -17 10 -23 28 -23 21 0 24 4 24 40 0 34 -4 42 -26 50 -41 16 -116 12 -149
-9z"/>
<path d="M3430 1946 c0 -13 4 -26 10 -28 5 -1 11 -48 13 -103 2 -56 9 -110 16
-123 30 -56 143 -65 195 -17 25 23 26 29 26 133 0 88 3 111 15 116 8 3 15 15
15 26 0 18 -6 20 -55 20 -52 0 -55 -1 -55 -25 0 -16 6 -25 16 -25 14 0 15 -14
12 -100 -3 -111 -10 -124 -63 -124 -52 0 -60 14 -63 118 -3 75 -1 96 12 109
33 32 20 47 -39 47 -51 0 -55 -2 -55 -24z"/>
<path d="M3820 1945 c0 -16 6 -25 15 -25 12 0 15 -19 15 -110 0 -89 -3 -112
-15 -116 -8 -4 -15 -15 -15 -25 0 -16 8 -19 55 -19 48 0 55 2 55 20 0 11 -4
20 -10 20 -6 0 -10 45 -10 115 0 96 3 115 17 123 10 6 14 16 10 26 -5 12 -20
16 -62 16 -52 0 -55 -1 -55 -25z"/>
</g>
</svg>
